<svg xmlns="http://www.w3.org/2000/svg" width="641" height="488" viewBox="0 0 641 488" fill="none"><path d="M198.088 73.8813C198.067 73.9452 198.056 73.9985 198.056 74.0412H79.6484C79.6484 62.9411 88.6435 53.9203 99.7512 53.9203C103.016 53.9203 106.121 54.72 108.842 56.0955C111.787 46.7229 121.39 40.3251 132.114 42.4364C141.493 44.2597 148.151 52.7047 148.151 62.2694V62.3653C148.472 62.4293 149.016 62.8771 149.112 62.5573C152.633 51.3292 166.974 49.9217 176.865 50.8814C188.805 52.065 199.977 60.8619 198.088 73.8813Z" fill="white" stroke="#8CBFBE" stroke-width="3.8" stroke-miterlimit="10"></path><path d="M561.347 464.591C552.096 464.591 544.606 470.477 544.606 477.739C544.606 480.778 545.95 483.593 548.191 485.832H501.199C495.277 469.102 492.076 451.092 492.076 432.347C492.076 413.601 495.277 395.592 501.199 378.862H548.223C545.95 376.622 544.606 373.807 544.606 370.736C544.606 363.475 552.096 357.621 561.347 357.621C570.599 357.621 578.089 363.475 578.089 370.736C578.089 373.807 576.745 376.622 574.472 378.862H599.088V418.975C596.911 416.864 594.159 415.617 591.214 415.617C583.947 415.617 578.089 423.102 578.089 432.347C578.089 441.591 583.947 449.077 591.214 449.077C594.159 449.077 596.911 447.829 599.088 445.718V485.832H574.504C576.745 483.593 578.089 480.778 578.089 477.739C578.089 470.477 570.599 464.591 561.347 464.591Z" fill="#FBC343"></path><path d="M125.104 202.412C125.104 90.7714 215.662 0.275391 327.38 0.275391C439.065 0.275391 529.624 90.7714 529.624 202.412H125.104Z" fill="white"></path><path opacity="0.1" d="M125.104 202.412C125.104 90.7714 215.662 0.275391 327.38 0.275391C439.065 0.275391 529.624 90.7714 529.624 202.412H125.104Z" fill="#FBC343"></path><path d="M302.669 486.631C292.585 486.631 284.326 478.57 284.07 468.525L253.66 452.627H401.102L370.66 468.525C370.403 478.57 362.177 486.631 352.093 486.631H302.669Z" fill="#102048"></path><path fill-rule="evenodd" clip-rule="evenodd" d="M398.572 454.834L371.427 469.037C370.915 479.273 362.432 487.431 352.093 487.431H302.668C292.297 487.431 283.814 479.273 283.302 469.037L256.156 454.834L250.395 451.827H404.334L398.572 454.834ZM256.925 453.427L284.87 468.045C284.87 477.866 292.841 485.831 302.668 485.831H352.093C361.92 485.831 369.859 477.866 369.859 468.045L397.836 453.427H256.925Z" fill="white"></path><path d="M487.659 202.411C487.659 291.02 415.794 362.835 327.125 362.835C238.455 362.835 166.559 291.02 166.559 202.411C166.559 113.803 238.455 41.9561 327.125 41.9561C415.794 41.9561 487.659 113.803 487.659 202.411Z" fill="white"></path><path d="M487.659 202.411C487.659 291.02 415.794 362.835 327.125 362.835C238.455 362.835 166.559 291.02 166.559 202.411C166.559 113.803 238.455 41.9561 327.125 41.9561C415.794 41.9561 487.659 113.803 487.659 202.411Z" fill="white"></path><path d="M397.836 390.825H256.893V314.116H397.836V390.825Z" fill="#FBC343"></path><path d="M397.836 432.506H256.893V390.825H397.836V432.506Z" fill="#708CD5"></path><path d="M431.928 127.398C422.709 127.398 415.219 133.283 415.219 140.545C415.219 143.616 416.563 146.431 418.804 148.67H380.871V112.299C378.663 114.474 375.878 115.786 372.869 115.786C365.602 115.786 359.744 108.3 359.744 99.0556C359.744 89.8428 365.602 82.3575 372.869 82.3575C375.878 82.3575 378.663 83.669 380.871 85.8442V50.8486C426.487 66.9389 462.659 103.086 478.792 148.67H445.053C447.326 146.431 448.67 143.616 448.67 140.545C448.67 133.283 441.18 127.398 431.928 127.398Z" fill="#FBD682"></path><path d="M380.871 322.209C378.663 324.385 375.878 325.696 372.869 325.696C365.602 325.696 359.744 318.211 359.744 308.998C359.744 299.753 365.602 292.268 372.869 292.268C375.878 292.268 378.663 293.579 380.871 295.755V255.641H418.804C416.563 253.402 415.219 250.587 415.219 247.516C415.219 240.286 422.709 234.4 431.928 234.4C441.18 234.4 448.67 240.286 448.67 247.516C448.67 250.587 447.326 253.402 445.085 255.641H478.792C462.659 301.225 426.519 337.34 380.871 353.462V322.209Z" fill="#FBC343"></path><path d="M431.928 234.4C422.709 234.4 415.219 240.286 415.219 247.515C415.219 250.586 416.563 253.401 418.804 255.64H380.871V214.567C383.208 217.254 386.281 218.853 389.674 218.853C396.94 218.853 402.798 211.368 402.798 202.155C402.798 192.91 396.94 185.425 389.674 185.425C386.281 185.425 383.208 187.056 380.871 189.711V148.67H418.804C416.563 146.431 415.219 143.616 415.219 140.545C415.219 133.283 422.709 127.397 431.928 127.397C441.179 127.397 448.67 133.283 448.67 140.545C448.67 143.616 447.325 146.431 445.053 148.67H478.792C484.714 165.4 487.915 183.378 487.915 202.155C487.915 220.9 484.714 238.878 478.792 255.64H445.085C447.325 253.401 448.67 250.586 448.67 247.515C448.67 240.286 441.179 234.4 431.928 234.4Z" fill="#FBC343"></path><path d="M273.859 353.462V322.337C271.65 324.449 268.93 325.696 265.953 325.696C258.718 325.696 252.828 318.211 252.828 308.998C252.828 299.753 258.718 292.268 265.953 292.268C268.93 292.268 271.65 293.515 273.859 295.627V255.609H314.225C311.984 253.402 310.64 250.587 310.64 247.516C310.64 240.286 318.13 234.4 327.381 234.4C336.6 234.4 344.091 240.286 344.091 247.516C344.091 250.587 342.778 253.402 340.538 255.609H380.871V295.755C378.662 293.547 375.878 292.268 372.869 292.268C365.602 292.268 359.744 299.753 359.744 308.998C359.744 318.211 365.602 325.696 372.869 325.696C375.878 325.696 378.662 324.385 380.871 322.209V353.462C364.13 359.38 346.14 362.579 327.381 362.579C308.591 362.579 290.601 359.38 273.859 353.462Z" fill="#FBC343"></path><path d="M327.381 170.263C318.13 170.263 310.64 164.409 310.64 157.147C310.64 153.916 312.144 150.942 314.609 148.67H273.859V112.427C271.65 114.538 268.93 115.786 265.953 115.786C258.718 115.786 252.828 108.301 252.828 99.0559C252.828 89.8432 258.718 82.3578 265.953 82.3578C268.93 82.3578 271.65 83.6054 273.859 85.7166V50.849C290.601 44.9311 308.591 41.7002 327.381 41.7002C346.14 41.7002 364.13 44.9311 380.871 50.849V85.8446C378.662 83.6374 375.878 82.3578 372.869 82.3578C365.602 82.3578 359.744 89.8432 359.744 99.0559C359.744 108.301 365.602 115.786 372.869 115.786C375.878 115.786 378.662 114.474 380.871 112.299V148.67H340.121C342.586 150.942 344.091 153.916 344.091 157.147C344.091 164.409 336.6 170.263 327.381 170.263Z" fill="#FBC343"></path><path d="M236.085 127.398C226.866 127.398 219.375 133.283 219.375 140.545C219.375 143.616 220.72 146.431 222.961 148.67H175.969C192.07 103.086 228.242 66.9389 273.858 50.8486V85.7163C271.649 83.605 268.928 82.3575 265.951 82.3575C258.717 82.3575 252.827 89.8428 252.827 99.0556C252.827 108.3 258.717 115.786 265.951 115.786C268.928 115.786 271.649 114.538 273.858 112.427V148.67H249.241C251.482 146.431 252.827 143.616 252.827 140.545C252.827 133.283 245.336 127.398 236.085 127.398Z" fill="#FBD682"></path><path d="M431.928 127.398C422.709 127.398 415.219 133.283 415.219 140.545C415.219 143.616 416.563 146.431 418.804 148.67H380.871V112.299C378.663 114.474 375.878 115.786 372.869 115.786C365.602 115.786 359.744 108.3 359.744 99.0556C359.744 89.8428 365.602 82.3575 372.869 82.3575C375.878 82.3575 378.663 83.669 380.871 85.8442V50.8486C426.487 66.9389 462.659 103.086 478.792 148.67H445.053C447.326 146.431 448.67 143.616 448.67 140.545C448.67 133.283 441.18 127.398 431.928 127.398Z" fill="#FBC343"></path><path d="M431.928 234.4C422.709 234.4 415.219 240.286 415.219 247.515C415.219 250.586 416.563 253.401 418.804 255.64H380.871V214.567C383.208 217.254 386.281 218.853 389.674 218.853C396.94 218.853 402.798 211.368 402.798 202.155C402.798 192.91 396.94 185.425 389.674 185.425C386.281 185.425 383.208 187.056 380.871 189.711V148.67H418.804C416.563 146.431 415.219 143.616 415.219 140.545C415.219 133.283 422.709 127.397 431.928 127.397C441.179 127.397 448.67 133.283 448.67 140.545C448.67 143.616 447.325 146.431 445.053 148.67H478.792C484.714 165.4 487.915 183.378 487.915 202.155C487.915 220.9 484.714 238.878 478.792 255.64H445.085C447.325 253.401 448.67 250.586 448.67 247.515C448.67 240.286 441.179 234.4 431.928 234.4Z" fill="#FBC343"></path><path d="M327.381 170.263C318.13 170.263 310.64 164.409 310.64 157.147C310.64 153.916 312.144 150.942 314.609 148.67H273.859V112.427C271.65 114.538 268.93 115.786 265.953 115.786C258.718 115.786 252.828 108.301 252.828 99.0559C252.828 89.8432 258.718 82.3578 265.953 82.3578C268.93 82.3578 271.65 83.6054 273.859 85.7166V50.849C290.601 44.9311 308.591 41.7002 327.381 41.7002C346.14 41.7002 364.13 44.9311 380.871 50.849V85.8446C378.662 83.6374 375.878 82.3578 372.869 82.3578C365.602 82.3578 359.744 89.8432 359.744 99.0559C359.744 108.301 365.602 115.786 372.869 115.786C375.878 115.786 378.662 114.474 380.871 112.299V148.67H340.121C342.586 150.942 344.091 153.916 344.091 157.147C344.091 164.409 336.6 170.263 327.381 170.263Z" fill="#FBC343"></path><path d="M236.085 127.398C226.866 127.398 219.375 133.283 219.375 140.545C219.375 143.616 220.72 146.431 222.961 148.67H175.969C192.07 103.086 228.242 66.9389 273.858 50.8486V85.7163C271.649 83.605 268.928 82.3575 265.951 82.3575C258.717 82.3575 252.827 89.8428 252.827 99.0556C252.827 108.3 258.717 115.786 265.951 115.786C268.928 115.786 271.649 114.538 273.858 112.427V148.67H249.241C251.482 146.431 252.827 143.616 252.827 140.545C252.827 133.283 245.336 127.398 236.085 127.398Z" fill="#FBC343"></path><path d="M478.79 149.47H443.13L444.506 148.094C446.715 145.919 447.867 143.296 447.867 140.545C447.867 133.731 440.729 128.197 431.926 128.197C423.155 128.197 416.017 133.731 416.017 140.545C416.017 143.296 417.169 145.919 419.378 148.094L420.754 149.47H380.101V114.058C377.924 115.722 375.459 116.585 372.866 116.585C365.184 116.585 358.941 108.716 358.941 99.0556C358.941 89.395 365.184 81.5578 372.866 81.5578C375.459 81.5578 377.924 82.4215 380.101 84.0849V50.8486H381.701V87.7316L380.325 86.42C378.148 84.2768 375.587 83.1572 372.866 83.1572C366.08 83.1572 360.542 90.2907 360.542 99.0556C360.542 107.852 366.08 114.986 372.866 114.986C375.587 114.986 378.148 113.866 380.325 111.723L381.701 110.38V147.87H417.041C415.312 145.663 414.416 143.136 414.416 140.545C414.416 132.868 422.259 126.598 431.926 126.598C441.593 126.598 449.468 132.868 449.468 140.545C449.468 143.136 448.54 145.663 446.843 147.87H478.79V149.47Z" fill="#FDF6E6"></path><path d="M381.701 353.461H380.101V323.968C377.924 325.631 375.459 326.495 372.866 326.495C365.184 326.495 358.941 318.626 358.941 308.997C358.941 299.304 365.184 291.467 372.866 291.467C375.459 291.467 377.924 292.331 380.101 293.994V254.808H417.009C415.312 252.633 414.416 250.106 414.416 247.515C414.416 239.837 422.259 233.6 431.926 233.6C441.593 233.6 449.468 239.837 449.468 247.515C449.468 250.106 448.54 252.633 446.875 254.808H478.79V256.408H443.162L444.538 255.064C446.715 252.889 447.867 250.266 447.867 247.515C447.867 240.733 440.729 235.199 431.926 235.199C423.155 235.199 416.017 240.733 416.017 247.515C416.017 250.266 417.169 252.889 419.346 255.064L420.722 256.408H381.701V297.641L380.325 296.329C378.148 294.186 375.587 293.067 372.866 293.067C366.08 293.067 360.542 300.2 360.542 308.997C360.542 317.762 366.08 324.895 372.866 324.895C375.587 324.895 378.148 323.776 380.325 321.632L381.701 320.289V353.461Z" fill="#FDF6E6"></path><path d="M274.657 148.67H273.056V114.154C270.912 115.754 268.511 116.585 265.95 116.585C258.267 116.585 252.025 108.716 252.025 99.0556C252.025 89.395 258.267 81.5578 265.95 81.5578C268.511 81.5578 270.912 82.3895 273.056 83.9889V50.8486H274.657V87.6036L273.313 86.2921C271.168 84.2448 268.639 83.1572 265.95 83.1572C259.164 83.1572 253.626 90.2907 253.626 99.0556C253.626 107.852 259.164 114.986 265.95 114.986C268.639 114.986 271.168 113.898 273.313 111.851L274.657 110.54V148.67Z" fill="#FDF6E6"></path><path d="M256.094 454.226V431.706H398.638V454.226H256.094Z" fill="#102048"></path><path fill-rule="evenodd" clip-rule="evenodd" d="M399.437 455.026H255.293V430.906H399.437V455.026ZM256.894 432.506V453.426H397.837V432.506H256.894Z" fill="white"></path><path d="M298.763 276.784H266.336V274.385H296.362V241.501H298.763V276.784Z" fill="#FDF6E6"></path><path d="M134.707 483.369C89.9238 465.071 55.5443 427.229 41.6836 380.909L88.6114 383.18C86.4987 380.845 85.2823 377.966 85.4423 374.895C85.7944 367.666 93.541 362.164 102.792 362.611C112.011 363.059 119.214 369.297 118.862 376.527C118.701 379.597 117.229 382.316 114.892 384.46L139.444 385.643L137.524 425.597C135.443 423.39 132.754 421.982 129.809 421.854C122.543 421.503 116.301 428.7 115.853 437.913C115.404 447.126 120.942 454.899 128.177 455.251C131.122 455.379 133.939 454.291 136.211 452.276L134.707 483.369Z" fill="#FBC343"></path><path fill-rule="evenodd" clip-rule="evenodd" d="M190.565 416.673V485.768H47.541V416.673H190.565ZM135.283 437.178C135.283 434.331 132.914 431.963 130.033 431.963H108.073C105.192 431.963 102.824 434.331 102.824 437.178C102.824 440.057 105.192 442.424 108.073 442.424H130.033C132.914 442.424 135.283 440.057 135.283 437.178Z" fill="#E5ECFF" stroke="#708CD5" stroke-width="3.8" stroke-miterlimit="10"></path><path opacity="0.2" d="M190.565 485.767C190.565 485.767 89.3791 478.666 47.541 416.672V485.767H190.565Z" fill="#1F3C88"></path><path d="M553.601 50.4659C553.601 51.4895 553.526 52.4812 553.377 53.4408H434.969C434.969 42.3408 443.964 33.3519 455.103 33.3519C458.369 33.3519 461.442 34.1197 464.163 35.4952C466.723 27.3381 474.342 21.4521 483.369 21.4521C494.477 21.4521 501.583 26.3464 501.583 37.4465V37.6704C505.488 38.2782 509.01 39.9736 511.827 42.5007C513.651 33.256 523.735 29.4493 533.498 30.377C546.366 31.5926 553.601 39.3658 553.601 50.4659Z" fill="white" stroke="#8CBFBE" stroke-width="3.8" stroke-miterlimit="10"></path><path d="M440.092 284.464C441.244 281.297 439.58 279.409 439.548 277.714C439.484 275.987 440.028 274.483 439.099 274.259C438.171 274.035 437.083 275.443 436.475 282.864L440.092 284.464Z" fill="#F9B384"></path><path d="M441.116 287.438L439.9 292.301H432.378L427.768 282C427.096 280.753 425.303 275.795 425.463 274.739C425.783 272.788 428.152 277.618 428.28 277.714C427.832 276.242 426.391 271.604 427.064 270.548C427.864 269.301 430.297 274.707 430.937 276.338C430.617 274.835 428.856 269.141 429.721 268.309C430.745 267.318 433.114 273.619 433.498 275.603C433.402 274.099 432.698 269.045 433.658 269.173C435.034 269.333 437.435 278.194 437.435 278.194C437.435 278.194 439.868 281.904 441.116 287.438Z" fill="#F9B384"></path><path d="M429.336 280.689C430.168 279.889 431.129 279.186 432.217 278.674C432.729 278.418 433.305 278.226 433.913 278.13C434.49 278.034 435.098 278.034 435.674 278.194V278.322C434.522 278.258 433.401 278.546 432.377 279.026C431.321 279.505 430.392 280.177 429.432 280.817L429.336 280.689Z" fill="#E28B6D"></path><path d="M436.476 280.113C435.963 280.113 435.483 280.337 435.291 280.753C435.099 281.169 435.067 281.681 435.099 282.16C435.131 282.672 435.227 283.184 435.387 283.664C435.515 284.144 435.675 284.623 435.932 285.071L435.803 285.167C435.451 284.751 435.227 284.272 435.035 283.76C434.875 283.248 434.747 282.736 434.715 282.192C434.683 281.681 434.715 281.105 435.003 280.593C435.067 280.465 435.195 280.369 435.291 280.241C435.387 280.177 435.515 280.081 435.643 280.017C435.803 279.985 435.931 279.953 436.06 279.953H436.476V280.113Z" fill="#E28B6D"></path><path d="M468.041 476.907L468.746 467.599H456.229L454.501 471.533C453.765 473.165 452.772 474.668 451.588 475.98C455.301 477.931 461.063 480.074 468.041 476.907Z" fill="#F9B384"></path><path d="M451.587 475.979C449.827 477.899 447.65 479.402 445.185 480.362L439.615 482.505C438.111 483.465 438.783 485.768 440.543 485.768H463.207C465.544 485.768 467.464 484.009 467.657 481.673L468.041 476.907C461.062 480.074 455.3 477.931 451.587 475.979Z" fill="#102048"></path><path d="M498.703 476.907L497.967 467.599H510.483L512.212 471.533C512.948 473.165 513.94 474.668 515.157 475.98C511.443 477.931 505.649 480.074 498.703 476.907Z" fill="#F9B384"></path><path d="M515.157 475.979C516.885 477.899 519.062 479.402 521.527 480.362L527.129 482.505C528.633 483.465 527.961 485.768 526.168 485.768H503.505C501.168 485.768 499.247 484.009 499.055 481.673L498.703 476.907C505.649 480.074 511.443 477.931 515.157 475.979Z" fill="#102048"></path><path d="M513.622 469.39H492.078L480.394 378.83L474.312 419.999L473.032 469.39H452.801C451.233 431.035 453.217 389.834 459.844 344.954L460.292 337.82L460.804 329.695L501.522 332.67L502.002 338.236L502.93 348.793L513.622 469.39Z" fill="#1F3C88"></path><path opacity="0.6" d="M502.929 348.792C499.12 354.582 472.391 354.39 459.715 347.289L460.291 337.82L502.001 338.236L502.929 348.792Z" fill="#102048"></path><path d="M458.722 332.095C458.722 332.095 454.689 342.491 458.146 344.506C461.603 346.489 501.489 346.905 504.626 344.506C507.795 342.107 500.144 336.093 500.881 332.095C501.617 328.096 458.722 332.095 458.722 332.095Z" fill="#708CD5"></path><path d="M455.297 289.262C453.921 292.365 448.703 301.737 448.703 301.737L441.116 287.438C439.388 288.846 437.403 290.126 431.449 290.189C431.449 290.189 439.996 321.826 447.711 325.089C460.355 330.431 463.3 306.536 463.3 306.536L455.297 289.262Z" fill="#708CD5"></path><path d="M455.299 289.262L457.38 284.431C458.18 282.512 459.62 280.881 461.509 280.017C461.701 279.932 461.882 279.846 462.053 279.761C465.638 278.418 472.265 276.274 478.411 276.37C480.619 276.37 488.814 276.242 502.099 279.665L505.844 327.136L461.829 326.241L455.299 289.262Z" fill="#708CD5"></path><path opacity="0.3" d="M494.607 289.262C495.631 307.111 494.191 326.273 483.787 327.52L495.791 330.879L508.691 324.001L503.602 295.915L494.607 289.262Z" fill="#1F3C88"></path><path d="M496.529 278.354C499.186 278.961 503.635 279.569 505.844 281.041C508.021 282.544 514.231 314.629 515.831 322.05C517.432 329.439 517.848 337.021 485.037 338.236L481.836 329.247L501.042 321.826L493.648 289.262L496.529 278.354Z" fill="#708CD5"></path><path d="M461.188 291.692C461.412 294.923 461.509 298.122 461.605 301.353L461.701 306.151C461.733 307.783 461.733 309.382 461.701 310.982H461.477C461.348 309.382 461.252 307.783 461.188 306.183L461.028 301.353C460.964 298.154 460.9 294.923 460.932 291.692H461.188Z" fill="#1F3C88"></path><path d="M497.778 324.833V326.688L488.623 334.973L487.887 331.551L497.778 324.833Z" fill="#102048"></path><path d="M487.278 333.758L497.778 324.833L478.027 322.37L487.278 333.758Z" fill="white"></path><path d="M488.623 334.973H450.626L444.256 304.744H482.253L488.623 334.973Z" fill="#102048"></path><path d="M468.551 321.986H464.326L463.525 317.731H467.751L468.551 321.986Z" fill="white"></path><path d="M465.158 245.533C460.9 234.721 478.698 230.722 480.427 239.775C480.427 239.775 485.517 237.12 490.574 239.935C500.306 245.309 493.999 260.504 490.574 260.504L473 258.201L465.158 245.533Z" fill="#6F3428"></path><path d="M487.405 266.006V277.074C487.405 280.113 484.492 282.576 480.875 282.576C477.29 282.576 474.377 280.113 474.377 277.074V266.006H487.405Z" fill="#F9B384"></path><path d="M484.588 270.164C482.924 272.372 479.339 274.931 474.377 274.963V269.141L484.588 270.164Z" fill="#3C1C16"></path><path d="M487.404 248.124V267.061C487.404 267.061 483.691 273.363 476.072 272.851C472.295 272.595 470.406 270.228 469.382 266.454C468.998 265.014 468.774 263.383 468.582 261.559C468.294 258.52 468.198 255.034 468.102 251.227V248.124H487.404Z" fill="#F9B384"></path><path d="M468.261 243.518C465.924 241.47 461.155 243.038 459.746 245.917C457.793 249.979 460.354 254.106 463.683 255.225C468.549 256.857 470.502 251.771 470.502 251.771C470.502 251.771 472.07 253.978 475.559 253.498C478.056 253.146 478.921 250.683 478.921 250.683C478.921 250.683 479.689 256.953 487.98 256.825C489.74 256.217 490.572 249.34 490.572 249.34L485.099 243.678L468.261 243.518Z" fill="#6F3428"></path><path d="M485.037 338.236C480.971 339.068 476.714 339.548 472.584 338.94C469.992 338.524 467.495 337.66 465.414 336.061C463.717 334.749 462.213 332.862 461.285 330.911C461.061 330.463 460.901 329.759 461.285 329.311C461.733 328.863 462.501 329.663 462.917 329.983C464.934 331.487 466.406 333.694 466.406 333.694C466.406 333.694 463.301 328.608 464.07 327.776C464.678 327.136 465.606 327.296 468.711 332.478C468.711 332.478 469.319 333.758 469.896 333.118C470.184 332.734 468.103 328.704 469.607 328.384C470.792 328.096 471.88 331.902 472.68 333.406C473.673 334.557 475.433 333.406 475.433 333.406L483.884 335.005L485.037 338.236Z" fill="#F9B384"></path><path d="M475.209 333.63C475.049 332.766 474.825 331.903 474.505 331.135C474.441 330.943 474.345 330.751 474.313 330.559C474.185 329.823 474.857 329.599 475.305 329.727C476.265 330.079 477.13 331.359 477.706 332.382C478.186 333.246 478.506 334.366 478.346 335.421C478.314 335.741 475.561 335.773 475.401 335.357C475.369 335.261 475.337 335.165 475.337 335.037C475.316 334.568 475.273 334.099 475.209 333.63Z" fill="#F9B384"></path><path d="M478.537 363.731C479.049 367.016 479.54 370.3 480.009 373.584L481.354 383.5L482.602 393.385L483.178 398.343L483.691 403.301L483.403 403.365L482.634 398.407L481.898 393.481L480.586 383.596L479.337 373.68C478.953 370.374 478.58 367.069 478.217 363.763L478.537 363.731Z" fill="#708CD5"></path><path d="M473.384 285.039C475.464 286.958 478.313 288.014 481.098 287.822C482.475 287.758 483.851 287.374 485.099 286.734C486.38 286.095 487.5 285.199 488.525 284.239L488.685 284.367C487.756 285.487 486.636 286.478 485.355 287.182C484.075 287.886 482.603 288.334 481.13 288.43C479.658 288.494 478.153 288.27 476.777 287.694C475.432 287.15 474.184 286.287 473.191 285.199L473.384 285.039Z" fill="#1F3C88"></path><path d="M486.477 257.753C487.341 255.61 489.005 255.034 490.638 255.802C493.199 256.985 492.367 263.639 486.477 263.799V257.753Z" fill="#F9B384"></path><path d="M487.789 258.969C487.661 258.329 487.853 257.689 488.301 257.145C488.525 256.921 488.909 256.729 489.293 256.761C489.678 256.793 489.966 256.985 490.158 257.209L490.03 257.401C489.742 257.305 489.485 257.241 489.293 257.273C489.069 257.305 488.877 257.401 488.717 257.561C488.557 257.721 488.429 257.977 488.301 258.201C488.173 258.435 488.077 258.691 488.013 258.969H487.789Z" fill="#6F3428"></path><path d="M472.648 258.873C472.648 259.608 472.232 260.216 471.719 260.216C471.207 260.216 470.791 259.608 470.791 258.873C470.791 258.105 471.207 257.497 471.719 257.497C472.232 257.497 472.648 258.105 472.648 258.873Z" fill="#3C1C16"></path><path d="M480.489 258.873C480.489 259.608 480.073 260.216 479.561 260.216C479.049 260.216 478.633 259.608 478.633 258.873C478.633 258.105 479.049 257.497 479.561 257.497C480.073 257.497 480.489 258.105 480.489 258.873Z" fill="#3C1C16"></path><path d="M475.304 259.384C475.4 259.672 475.432 259.96 475.496 260.248C475.518 260.397 475.528 260.546 475.528 260.695C475.528 260.823 475.56 261.015 475.432 261.207C475.208 261.623 474.856 261.687 474.664 261.815C474.44 261.911 474.28 262.071 474.216 262.295C473.992 262.679 474.12 263.19 474.44 263.478C474.792 263.798 475.368 263.83 475.913 263.798L475.945 264.022C475.4 264.214 474.728 264.31 474.12 263.894C473.544 263.478 473.352 262.647 473.672 262.039C473.832 261.719 474.088 261.463 474.376 261.303C474.696 261.175 474.92 261.079 475.016 260.983C475.08 260.887 475.08 260.535 475.08 260.279C475.112 259.992 475.08 259.704 475.08 259.448L475.304 259.384Z" fill="#E28B6D"></path><path d="M473.192 266.869C473.641 267.029 474.153 267.093 474.633 267.125C475.113 267.157 475.625 267.189 476.105 267.093C476.575 267.051 477.044 266.944 477.514 266.773C477.962 266.613 478.378 266.357 478.794 266.102L478.986 266.262C478.634 266.677 478.186 266.997 477.706 267.253C477.226 267.477 476.682 267.637 476.169 267.701C475.625 267.733 475.081 267.733 474.569 267.637C474.025 267.541 473.513 267.381 473.064 267.093L473.192 266.869Z" fill="#3C1C16"></path><path d="M469.51 256.889C469.734 256.537 469.99 256.185 470.374 255.93C470.726 255.674 471.174 255.514 471.623 255.514C472.103 255.546 472.519 255.706 472.871 255.93C473.255 256.153 473.575 256.441 473.863 256.761L473.767 256.889C473.415 256.665 473.063 256.409 472.711 256.249C472.359 256.057 472.007 255.93 471.623 255.93C470.854 255.866 470.182 256.377 469.638 256.985L469.51 256.889Z" fill="#3C1C16"></path><path d="M477.385 256.889C477.609 256.505 477.961 256.153 478.409 255.897C478.825 255.673 479.337 255.578 479.818 255.61C480.778 255.673 481.642 256.217 482.282 256.889L482.186 256.985C481.418 256.505 480.65 256.025 479.786 255.993C478.921 255.929 478.089 256.313 477.513 256.985L477.385 256.889Z" fill="#3C1C16"></path><path opacity="0.4" d="M484.812 263.606C484.812 264.982 483.692 266.102 482.315 266.102C480.939 266.102 479.818 264.982 479.818 263.606C479.818 262.231 480.939 261.111 482.315 261.111C483.692 261.111 484.812 262.231 484.812 263.606Z" fill="#EE6F57"></path><path opacity="0.4" d="M471.687 263.99C471.687 265.302 470.663 266.357 469.382 266.453C468.998 265.014 468.774 263.382 468.582 261.559C468.774 261.516 468.977 261.495 469.19 261.495C470.567 261.495 471.687 262.615 471.687 263.99Z" fill="#EE6F57"></path><path d="M562.533 252.858H530.523C522.456 252.858 515.926 246.333 515.926 238.272V233.697C515.926 225.636 522.456 219.11 530.523 219.11H562.533C570.6 219.11 577.13 225.636 577.13 233.697V238.272C577.13 246.333 570.6 252.858 562.533 252.858Z" fill="#C6EAE9"></path><path d="M525.241 240.351L510.484 252.858H539.998L525.241 240.351Z" fill="#C6EAE9"></path><path d="M538.687 235.968C538.687 237.727 537.279 239.135 535.518 239.135C533.789 239.135 532.381 237.727 532.381 235.968C532.381 234.241 533.789 232.833 535.518 232.833C537.279 232.833 538.687 234.241 538.687 235.968Z" fill="white"></path><path d="M549.667 235.968C549.667 237.727 548.258 239.135 546.53 239.135C544.801 239.135 543.393 237.727 543.393 235.968C543.393 234.241 544.801 232.833 546.53 232.833C548.258 232.833 549.667 234.241 549.667 235.968Z" fill="white"></path><path d="M560.679 235.968C560.679 237.727 559.271 239.135 557.542 239.135C555.781 239.135 554.373 237.727 554.373 235.968C554.373 234.241 555.781 232.833 557.542 232.833C559.271 232.833 560.679 234.241 560.679 235.968Z" fill="white"></path><path d="M147.962 297.258C146.361 299.273 141.271 316.291 141.271 316.291C141.271 316.291 146.585 319.618 154.812 318.722C154.524 318.722 147.962 297.258 147.962 297.258Z" fill="#EE6F57"></path><path d="M164.223 478.154L164.863 470.125H154.043L152.539 473.516C151.898 474.955 151.034 476.235 150.01 477.354C153.211 479.05 158.205 480.905 164.223 478.154Z" fill="#F9B384"></path><path d="M150.009 477.354C148.504 479.018 146.648 480.329 144.503 481.129L139.669 482.984C138.389 483.816 138.965 485.831 140.502 485.831H160.06C162.077 485.831 163.742 484.296 163.902 482.281L164.222 478.154C158.204 480.905 153.21 479.05 150.009 477.354Z" fill="#102048"></path><path d="M196.298 478.154L195.658 470.125H206.478L207.982 473.516C208.591 474.955 209.455 476.235 210.479 477.354C207.278 479.05 202.284 480.905 196.298 478.154Z" fill="#F9B384"></path><path d="M210.48 477.354C211.984 479.018 213.873 480.329 215.985 481.129L220.819 482.984C222.132 483.816 221.555 485.831 220.019 485.831H200.428C198.444 485.831 196.779 484.296 196.619 482.281L196.299 478.154C202.285 480.905 207.279 479.05 210.48 477.354Z" fill="#102048"></path><path d="M211.15 473.26H189.255L173.346 377.742L168.352 473.26H148.345L149.53 375.183C147.481 366.066 148.153 359.028 151.002 351.639C151.706 349.752 152.571 347.832 153.563 345.881C154.224 344.559 154.95 343.205 155.74 341.818H190.759L191.368 345.881L191.72 348.12L211.15 473.26Z" fill="#708CD5"></path><path d="M190.632 279.952L180.293 292.907L191.721 297.897L199.275 282.575L195.914 279.504L190.632 279.952Z" fill="#F9B384"></path><path d="M174.179 294.955H162.303L163.103 278.801H174.979L174.179 294.955Z" fill="#F9B384"></path><path d="M180.036 266.069C182.597 269.396 184.006 271.092 183.878 271.827C183.75 272.563 182.821 274.162 179.652 273.619C179.78 273.043 180.036 266.069 180.036 266.069Z" fill="#E28B6D"></path><path d="M180.708 275.57C180.259 278.353 179.043 280.368 176.29 280.624C169.312 281.328 162.685 278.417 162.685 278.417L161.373 263.191L167.551 258.744L180.035 260.631C180.163 263.383 180.644 266.773 180.836 269.972C180.964 271.987 180.964 273.907 180.708 275.57Z" fill="#F9B384"></path><path d="M174.978 262.646C177.987 265.493 181.636 265.749 183.877 263.83C188.646 259.735 185.541 249.915 174.978 253.561C174.978 253.561 163.326 248.283 156.571 255.257C149.817 262.262 154.939 269.748 146.584 280.752C146.584 280.752 162.525 291.276 181.284 281.296C178.307 275.954 172.385 280.176 172.225 271.155C172.161 271.027 171.296 263.542 174.978 262.646Z" fill="#102048"></path><path opacity="0.3" d="M193.192 345.881C193.064 346.585 192.552 347.352 191.72 348.12C186.406 352.95 167.84 357.685 151.002 351.639C151.706 349.751 152.57 347.832 153.563 345.881H193.192Z" fill="#1F3C88"></path><path d="M191.752 348.28C189.319 349.368 163.55 354.806 151.322 347.736C150.394 346.937 147.961 346.169 151.386 341.819C154.779 337.468 149.401 314.34 147.961 297.258C152.442 292.908 158.524 289.805 164.254 288.717C169.12 287.758 174.37 288.142 178.627 288.717C182.885 289.261 189.959 292.108 189.959 292.108L189.415 311.525C189.415 311.525 189.255 312.453 189.031 313.956C188.679 316.611 188.166 321.09 188.134 325.664C188.102 331.23 188.775 336.988 191.272 339.963C195.657 345.177 194.184 347.193 191.752 348.28Z" fill="#EE6F57"></path><path d="M202.795 304.199L199.818 320.77C199.796 320.77 199.786 320.759 199.786 320.738L196.072 318.402L195.944 318.338C195.902 318.296 195.848 318.253 195.784 318.21L181.411 309.158L175.361 288.333C181.283 289.229 187.75 289.677 191.815 293.323C194.728 295.978 199.497 300.841 202.795 304.199Z" fill="#EE6F57"></path><path d="M221.49 283.279C221.49 283.279 216.816 314.852 215.984 318.019C215.877 318.445 215.749 318.872 215.6 319.298C214.607 322.081 212.655 324.8 208.749 324.544C207.885 324.48 206.829 324.192 205.708 323.745C203.788 323.009 201.675 321.857 199.818 320.77L202.795 304.199C204.044 305.479 205.1 306.567 205.74 307.174L210.862 281.775L221.49 283.279Z" fill="#F9B384"></path><path d="M242.777 253.146C233.558 253.146 226.067 259.032 226.067 266.261C226.067 269.332 227.38 272.147 229.621 274.386H189.287V234.24C187.078 236.352 184.357 237.599 181.38 237.599C174.146 237.599 168.256 230.114 168.256 220.901C168.256 211.656 174.146 204.171 181.38 204.171C184.357 204.171 187.078 205.419 189.287 207.53V167.416H230.037C227.54 169.687 226.067 172.662 226.067 175.893C226.067 183.154 233.558 189.008 242.777 189.008C252.028 189.008 259.519 183.154 259.519 175.893C259.519 172.662 258.014 169.687 255.549 167.416H296.299V208.458C298.636 205.802 301.709 204.171 305.102 204.171C312.336 204.171 318.226 211.656 318.226 220.901C318.226 230.114 312.336 237.599 305.102 237.599C301.709 237.599 298.636 236 296.299 233.313V274.386H255.933C258.174 272.147 259.519 269.332 259.519 266.261C259.519 259.032 252.028 253.146 242.777 253.146Z" fill="#FBC343"></path><path d="M210.863 284.175C210.383 281.008 210.991 277.649 211.695 273.811L222.611 273.907C221.202 277.201 223.795 280.496 221.491 283.279L216.465 288.685L210.863 284.175Z" fill="#F9B384"></path><path d="M199.274 282.575C201.963 280.752 204.972 273.97 204.972 273.97C202.891 273.842 195.305 273.682 192.392 273.97C192.392 273.97 192.392 278.033 190.631 279.952C189.575 281.071 199.274 282.575 199.274 282.575Z" fill="#F9B384"></path><path d="M173.985 270.739C173.697 269.14 172.736 268.18 171.168 267.732C170.112 267.413 168.703 267.892 168.319 269.076C167.679 271.187 168.671 276.465 173.473 274.098C174.017 273.874 174.337 272.787 173.985 270.739Z" fill="#F9B384"></path><path d="M151.579 325.92C151.237 323.958 150.917 321.996 150.618 320.034L149.786 314.148L149.018 308.262C148.783 306.279 148.559 304.306 148.346 302.344L148.602 302.312C148.922 304.253 149.231 306.204 149.53 308.166L150.362 314.084L151.131 319.97C151.387 321.954 151.611 323.926 151.803 325.888L151.579 325.92Z" fill="#6F3428"></path><path opacity="0.3" d="M189.03 313.956C188.678 316.611 188.166 321.089 188.134 325.663C184.645 319.33 183.076 310.213 183.076 310.213C183.076 310.213 186.053 312.1 189.03 313.956Z" fill="#6F3428"></path><path d="M189.959 292.204C189.254 292.268 188.582 292.364 187.974 292.619C187.366 292.875 186.758 293.195 186.245 293.643C185.712 294.07 185.232 294.549 184.805 295.083C184.357 295.594 183.973 296.17 183.589 296.746L183.396 296.65C183.621 295.978 183.973 295.339 184.389 294.763C184.805 294.187 185.317 293.643 185.861 293.163C186.47 292.715 187.11 292.364 187.814 292.14C188.518 291.916 189.254 291.884 189.959 291.98V292.204Z" fill="#6F3428"></path><path d="M167.231 377.101C168.255 377.293 169.279 377.485 170.336 377.517C171.392 377.581 172.417 377.613 173.473 377.517C174.519 377.475 175.564 377.368 176.61 377.197C177.656 377.027 178.691 376.814 179.715 376.558L179.779 376.782C178.787 377.197 177.762 377.485 176.706 377.709C175.66 377.922 174.593 378.061 173.505 378.125C172.449 378.189 171.36 378.157 170.304 378.029C169.215 377.901 168.159 377.645 167.135 377.325L167.231 377.101Z" fill="#1F3C88"></path><path opacity="0.4" d="M180.708 275.569C180.537 275.612 180.355 275.633 180.163 275.633C178.595 275.633 177.314 274.354 177.314 272.754C177.314 271.187 178.595 269.907 180.163 269.907C180.398 269.907 180.622 269.929 180.836 269.971C180.964 271.986 180.964 273.906 180.708 275.569Z" fill="#EE6F57"></path><path d="M171.394 270.388C171.137 269.972 170.817 269.524 170.497 269.428C170.348 269.386 170.177 269.418 169.985 269.524C169.793 269.62 169.601 269.812 169.409 269.972L169.217 269.844C169.345 269.588 169.473 269.332 169.697 269.14C169.921 268.948 170.305 268.82 170.657 268.916C170.977 269.044 171.201 269.268 171.362 269.524C171.511 269.78 171.596 270.047 171.618 270.324L171.394 270.388Z" fill="#6F3428"></path><path d="M158.91 255.705C158.91 258.488 156.669 260.727 153.916 260.727C151.131 260.727 148.891 258.488 148.891 255.705C148.891 252.954 151.131 250.715 153.916 250.715C156.669 250.715 158.91 252.954 158.91 255.705Z" fill="#102048"></path><path opacity="0.4" d="M215.6 319.299C214.608 322.082 212.623 324.801 208.75 324.513C207.886 324.481 206.829 324.161 205.709 323.745C207.31 319.427 210.671 318.243 215.6 319.299Z" fill="#EE6F57"></path><path d="M223.188 272.147C223.092 272.562 222.868 272.978 222.74 273.522C221.94 277.649 221.684 278.256 221.684 278.256L218.547 276.657C219.187 274.514 220.724 271.443 221.556 270.419C222.004 269.875 222.324 269.491 222.804 269.971C223.188 270.291 223.381 270.995 223.188 272.147Z" fill="#F9B384"></path><path d="M223.189 272.147C221.876 271.763 222.516 271.155 222.804 269.972C223.189 270.292 223.381 270.995 223.189 272.147Z" fill="#E28B6D"></path><path d="M194.41 270.004C194.346 270.42 194.41 270.9 194.314 271.475C193.673 275.602 193.705 276.274 193.705 276.274L197.195 275.826C197.355 273.587 196.938 270.196 196.49 268.948C196.266 268.277 196.106 267.829 195.498 268.085C195.018 268.277 194.57 268.852 194.41 270.004Z" fill="#F9B384"></path><path d="M194.41 270.004C195.755 270.1 195.338 269.301 195.499 268.085C195.018 268.277 194.57 268.853 194.41 270.004Z" fill="#E28B6D"></path><path d="M197.259 273.266C197.259 273.618 197.387 273.938 197.611 274.162C197.835 274.418 198.187 274.61 198.379 275.026C198.572 275.442 198.475 275.889 198.379 276.241C198.251 276.625 198.059 276.977 197.803 277.265L197.675 277.169C197.835 276.849 197.963 276.497 198.027 276.145C198.123 275.825 198.155 275.474 198.027 275.186C197.931 274.898 197.611 274.738 197.355 274.386C197.099 274.066 197.003 273.618 197.099 273.234L197.259 273.266Z" fill="#E28B6D"></path><path d="M219.795 273.747C219.699 274.258 219.411 274.738 218.995 275.09C218.579 275.442 218.067 275.538 217.842 275.89C217.554 276.242 217.458 276.722 217.426 277.201C217.362 277.681 217.426 278.161 217.586 278.609L217.426 278.673C217.202 278.225 217.074 277.713 217.074 277.201C217.074 276.658 217.17 276.114 217.522 275.666C217.874 275.186 218.451 275.09 218.803 274.802C219.155 274.546 219.475 274.162 219.635 273.683L219.795 273.747Z" fill="#E28B6D"></path><g opacity="0.3"><path d="M151.514 341.754C152.186 342.586 153.178 343.129 154.171 343.577C155.195 344.025 156.251 344.409 157.34 344.697C158.396 344.985 159.485 345.241 160.605 345.401C161.693 345.593 162.814 345.721 163.934 345.721L163.966 346.04C162.814 346.264 161.661 346.2 160.509 346.104C159.357 345.976 158.236 345.752 157.116 345.433C156.027 345.113 154.907 344.729 153.883 344.185C152.89 343.641 151.834 342.969 151.258 341.914L151.514 341.754Z" fill="#6F3428"></path></g><path d="M77.761 280.848H109.772C117.838 280.848 124.369 274.322 124.369 266.293V261.686C124.369 253.625 117.838 247.1 109.772 247.1H77.761C69.6943 247.1 63.1641 253.625 63.1641 261.686V266.293C63.1641 274.322 69.6943 280.848 77.761 280.848Z" fill="#D3DFFF"></path><path d="M115.054 268.34L129.811 280.847H100.297L115.054 268.34Z" fill="#D3DFFF"></path><path d="M101.609 263.989C101.609 265.717 103.018 267.124 104.778 267.124C106.507 267.124 107.916 265.717 107.916 263.989C107.916 262.23 106.507 260.822 104.778 260.822C103.018 260.822 101.609 262.23 101.609 263.989Z" fill="white"></path><path d="M90.6289 263.989C90.6289 265.717 92.0374 267.124 93.766 267.124C95.4945 267.124 96.903 265.717 96.903 263.989C96.903 262.23 95.4945 260.822 93.766 260.822C92.0374 260.822 90.6289 262.23 90.6289 263.989Z" fill="white"></path><path d="M79.6172 263.989C79.6172 265.717 81.0257 267.124 82.7542 267.124C84.5148 267.124 85.9233 265.717 85.9233 263.989C85.9233 262.23 84.5148 260.822 82.7542 260.822C81.0257 260.822 79.6172 262.23 79.6172 263.989Z" fill="white"></path><path d="M0.328125 485.768H640.543" stroke="#102048" stroke-width="3.8" stroke-miterlimit="10"></path></svg>